<svg xmlns="http://www.w3.org/2000/svg" width="1150" height="34" viewBox="0 0 1150 34"><path fill="#fff" d="M1121.252 0c-14.375 0-14.375 14-28.749 14s-14.374-14-28.748-14-14.374 14-28.748 14c-14.375 0-14.375-14-28.75-14-14.374 0-14.374 14-28.748 14S963.135 0 948.761 0s-14.374 14-28.749 14-14.375-14-28.749-14-14.374 14-28.749 14-14.375-14-28.75-14c-14.371 0-14.371 14-28.743 14-14.375 0-14.375-14-28.75-14-14.372 0-14.372 14-28.744 14-14.374 0-14.374-14-28.747-14s-14.373 14-28.747 14C675.66 14 675.66 0 661.287 0c-14.374 0-14.374 14-28.748 14-14.375 0-14.375-14-28.751-14-14.374 0-14.374 14-28.748 14S560.666 0 546.292 0s-14.374 14-28.748 14S503.17 0 488.796 0c-14.375 0-14.375 14-28.75 14-14.376 0-14.376-14-28.753-14-14.375 0-14.375 14-28.75 14S388.168 0 373.792 0c-14.375 0-14.375 14-28.75 14S330.666 0 316.291 0s-14.375 14-28.751 14c-14.376 0-14.376-14-28.753-14-14.374 0-14.374 14-28.747 14-14.375 0-14.375-14-28.75-14s-14.375 14-28.751 14c-14.377 0-14.377-14-28.754-14s-14.377 14-28.755 14c-14.378 0-14.378-14-28.756-14S71.896 14 57.518 14C43.139 14 43.139 0 28.759 0S14.38 14 0 14v20h1150V14c-14.374 0-14.374-14-28.748-14z"/></svg>