<svg xmlns="http://www.w3.org/2000/svg" width="24.829" height="24.333" viewBox="0 0 24.829 24.333"><path d="M17.321 24.333h-1.115c-4.904-.58-8.497-2.857-11.11-5.772C2.473 15.637.402 11.875 0 6.817V5.459c.091-.921.544-1.55 1.067-2.086.65-.666 1.63-1.522 2.522-1.553.659-.022 1.78.451 2.232 1.066.388.53.595 1.59.775 2.378.185.797.6 1.95.485 2.717-.176 1.196-1.764 1.703-2.231 2.572 1.551 3.721 4.089 6.456 7.472 8.345.847-.465 1.595-1.864 2.767-1.892.428-.012.972.209 1.406.34.477.143.891.326 1.311.484.705.266 1.957.621 2.378 1.213.433.61.681 1.608.581 2.231-.194 1.234-2.227 2.603-3.444 3.059zM12.529 1.528c5.949 0 10.771 4.822 10.771 10.771h1.529C24.829 5.507 19.323 0 12.529 0v1.528z"/><path d="M12.529 9.327v1.552a1.42 1.42 0 0 1 1.421 1.42h1.553a2.973 2.973 0 0 0-2.974-2.972zm0-3.081a6.054 6.054 0 0 1 6.056 6.054h1.588a7.642 7.642 0 0 0-7.644-7.641v1.587z"/></svg>