<svg xmlns="http://www.w3.org/2000/svg" width="40" height="62" viewBox="-260 -20 40 62" fill="#149080"><path d="M-244.227 18.283c-.286.966-.245 2.191.027 3.639.494 2.635 1.687 6.041 2.358 9.67h5.062c.696-3.641 1.949-7.05 2.471-9.683.287-1.445.33-2.66.041-3.617-.275-.899-.89-1.618-2.021-2.303h-5.997c-1.075.679-1.674 1.391-1.941 2.294zm11.832 19.995h-13.799c-1.293 0-2.299.976-2.299 2.229v2.229h18.397v-2.229c0-1.253-1.006-2.229-2.299-2.229zm7.133-55.724h-11.732c0-1.244-1.015-2.229-2.3-2.229-1.283 0-2.3.985-2.3 2.229h-11.737l-6.073 25.517c.794-.461 1.589-.992 2.632-.992 1.359 0 2.243.818 2.924 1.375.682.557 1.162.849 1.447.849.292.001.769-.287 1.451-.836.681-.548 1.564-1.358 2.915-1.358 1.349 0 2.237.806 2.919 1.354.684.549 1.161.84 1.451.84.146 0 .338-.073.58-.214.242-.141.53-.353.872-.626.512-.411 1.139-.967 1.99-1.218.284-.085.593-.136.93-.136 1.347 0 2.238.805 2.92 1.354.683.548 1.159.84 1.451.84.287-.002.766-.296 1.445-.85.684-.554 1.571-1.367 2.925-1.367 1.356 0 2.239.817 2.919 1.371.342.276.631.489.872.631.24.143.431.214.575.214.288 0 .762-.293 1.442-.854.68-.559 1.567-1.384 2.929-1.384 1.044 0 1.839.533 2.632.997l-6.079-25.507zm-10.619 51.266h-6.864c-.657 0-1.15.479-1.15 1.115 0 .635.493 1.113 1.15 1.113h6.9c.655 0 1.15-.479 1.15-1.113 0-.636-.495-1.115-1.15-1.115h-.036zm-3.414-24.484c-.146 0-.338.074-.58.213-.157.094-.37.261-.57.41v3.731h2.299V9.959c-.505-.378-.908-.623-1.149-.623z"/></svg>