<svg xmlns="http://www.w3.org/2000/svg" width="14.962" height="27.718" viewBox="56.519 49.996 14.962 27.718"><path fill="#231F20" d="M68.181 55.188c1.026.029 1.993 0 2.681-.3.391-.818.556-1.854.619-2.989-.19-.015-.062-.337-.207-.399-.029-.202-.278-.195-.309-.398-.277-.165-.457-.422-.723-.598-.727-.162-1.44-.335-2.164-.499-.849.044-1.895-.103-2.58.1-2.619-.04-3.997 1.12-5.259 2.392-.023.078-.003.197-.105.199-.574 1.587-.125 3.621-.204 5.581.099.436.107.958.204 1.395-.998.296-2.212.387-3.402.499-.317.324-.178 1.089-.206 1.693.085.583.278 1.06.413 1.595.211.193.596.396.825.498.065.029.071.082.103.1.506.268 1.451.008 2.268.1-.136 1.978.256 3.915 0 5.68.007.327.295.382.208.798-.001.963-.067 1.99.208 2.69-.287.455-.497.982-.415 1.794.122.016.114.157.105.299-.075.47.643.175.515.698.162.456-.428.184-.413.498v.896c.53.285 1.462.182 2.268.199.908-.419 2.188-.479 2.785-1.196.459.235.916-.014 1.238-.199-.018-.315.273-.333.205-.698-.004-.328-.173-.496-.103-.896v-2.89c-.206-2.293-.048-4.938-.309-7.176.888-.105 1.917-.075 2.578-.398.357-.451.377-1.23.516-1.895.177-.226.221-.583.206-.996.19-.213.068-.729.104-1.096-.141-.595-.168-1.3-.825-1.39-.884-.235-2.043.595-2.991.299.049-1.134-.293-2.342 0-3.388.746-.181 1.446-.4 2.166-.602zm-3.818 4.783c.117.254.254.486.414.698.079.022.203.003.205.101a10.319 10.319 0 0 0 3.096-.299c0 .998-.271 1.733-.518 2.492-.662.045-1.467.3-1.958.198-.276.165-.372.506-.62.698-.049.441.142.495 0 .797-.201.137-.055.611-.205.796v1.496c.085.281-.146.258-.104.497v3.488c-.085.281.146.258.104.498v2.989c.063.271-.132.791.103.896-.07.364-.412-.021-.824.1-.528.122-.926.369-1.548.4.117-.353.32-.622.311-1.097.049-.381-.365-.312-.516-.49.193-.644.562-1.117.722-1.793.197-.515.714-1.298.31-1.794-.522-.105-.521.293-.826.398-.022.077-.002.196-.103.199-.023.077-.003.196-.103.199.01.12-.151.062 0 0 .022-.078.002-.197.103-.199.023-.077.002-.197.103-.199v-.299c.368-.575.67-1.214.826-1.993.191-.28.283-.656.412-.997.156-.262.34-.869.104-1.195-.517.033-.796.295-.93.697-.32-.189.161-.434.104-.697.138-.231.169-.566.309-.797.202-.413.564-1.304 0-1.596-.438-.023-.612.207-.723.498-.214.191-.43.383-.516.698-.373-.07-.143-.727-.206-1.097-.067-.52.122-.899 0-1.195-.56-.799-2.026-.105-3.197-.299-.108-.307-.222-.984-.104-1.195 1.045-.088 2.479.201 3.197-.199.024-.078.003-.197.104-.199.094-.723-.271-1-.515-1.396.232-.806.04-2.02.104-2.989.233-.141.328-.414.515-.598.112-.955.673-1.476.722-2.49-.273.001-.607-.055-.619.199-.302-.114-.382.479-.515.199-.112-.541.246-.626.309-.997.599-.418 1.212-.82 1.856-1.195 1.741-.244 4.648-.449 6.086.198.051.616-.287.854-.207 1.496h-1.546c-1.092.24-1.987.672-2.991.997-.24.066-.276.331-.516.398-.036.396-.225.646-.311.996-.079 1.431.133 2.589.102 3.978z"/></svg>