<svg xmlns="http://www.w3.org/2000/svg" width="54.156" height="23.183" viewBox="612.532 500.386 54.156 23.183"><path d="M652.844 506.098c-3.647-.971-7.839-1.667-12.359-1.666a46.394 46.394 0 0 0-7.71.623l-6.784-4.668-13.456.005 5.811 6.184h8.447c-4.58 1.598-6.759 3.515-6.759 3.515l.002 3.777s2.313 1.912 6.931 3.518l-8.623-.005-5.811 6.188 13.455.002 6.816-4.692c2.261.398 4.822.647 7.681.648 4.522-.001 8.712-.697 12.36-1.667-1.176-1.775-1.915-3.743-1.918-5.877.003-2.141.738-4.112 1.917-5.885zm3.423 1.034c-1.284 1.605-1.969 3.25-1.965 4.84-.007 1.597.677 3.238 1.968 4.847 6.399-2.162 10.419-4.841 10.419-4.841s-4.019-2.68-10.422-4.846z" fill="#63D1BB"/></svg>