<svg xmlns="http://www.w3.org/2000/svg" width="31.972" height="37.301" viewBox="8.014 4.35 31.972 37.301"><path fill="#63D1BB" d="M24 41.65c8.827 0 15.986-7.159 15.986-15.986C31.158 25.664 24 32.822 24 41.65zM12.641 20.78a4.442 4.442 0 0 0 4.44 4.441c.932 0 1.803-.294 2.513-.782l-.036.337c0 2.451 1.99 4.441 4.441 4.441s4.44-1.99 4.44-4.441l-.036-.337a4.396 4.396 0 0 0 2.514.782c2.451 0 4.44-1.99 4.44-4.441a4.418 4.418 0 0 0-2.54-3.997 4.434 4.434 0 0 0 2.54-3.997 4.441 4.441 0 0 0-6.954-3.659l.037-.337a4.441 4.441 0 0 0-8.881 0l.036.337a4.392 4.392 0 0 0-2.513-.781 4.442 4.442 0 0 0-4.44 4.44 4.42 4.42 0 0 0 2.54 3.997 4.42 4.42 0 0 0-2.541 3.997zM24 12.343a4.441 4.441 0 0 1 4.44 4.44 4.441 4.441 0 0 1-8.881 0c0-2.451 1.99-4.44 4.441-4.44zM8.014 25.664c0 8.827 7.158 15.986 15.986 15.986 0-8.828-7.158-15.986-15.986-15.986z"/></svg>