<svg xmlns="http://www.w3.org/2000/svg" width="112" height="46" viewBox="20 15 112 46"><path d="M129.364 56.884c4.394.868.843-35.858.147-38.311-1.96-6.569-26.677-2.144-32.18-1.717-12.723.987-25.189-.96-37.611-.376-6.205.292-34.854-1.813-37.519 1.986-5.048 7.208-2.652 25.797-1.278 35.076-4.043.779 2.309 4.154 3.138 4.897 6.314 2.192 16.358-.219 23.007.396 15.434 1.472 31.797-2.194 47.276-.955 4.496 1.144 9.604 1.019 14.224 1.239 3.414 5.572 19.664-2.461 20.796-2.235-.1-.02.507.1 0 0z"/><path d="M45.195 39.413c-.079-2.546-.484-5.074-.451-7.624.026-2.063.37-4.185-.341-6.164.043-.225.091-.449.132-.675.184-.992-3.103-.467-3.62.44-.325.266-.492.584-.354.908.035.082.065.165.096.247-.623 3.041-1.49 5.985-2.487 8.932-.382 1.128-.843 2.229-1.232 3.354-.553-1.049-1.111-2.083-1.56-3.206-1.303-3.257-2.479-6.55-4.068-9.685.181-1.452-3.039-1.299-3.674.03-.767 1.607-.668 3.229-.416 4.948.285 1.938.334 3.842.358 5.8.045 3.771.339 7.537.396 11.311-.335.372-.438.835-.087 1.305.153.203.344.362.542.521.858.687 3.323.101 3.318-1.207-.013-3.911-.295-7.815-.399-11.727-.01-.383-.017-.766-.022-1.149l.163.411c.607 1.522 1.243 3.001 2.073 4.416.824 1.401 1.237 2.908 1.711 4.438-.179.206-.288.439-.221.674-.038.169.067.275.238.342.606.519 1.747.261 2.381-.008a5.73 5.73 0 0 0 .784-.401c.327-.202.838-.645.691-1.1l-.083-.265c.447-1.204.674-2.456.917-3.728.259-1.356.742-2.64 1.229-3.924.049.587.1 1.176.147 1.762.194 2.422.031 4.812.008 7.236-.009.803.05 1.55.208 2.337.064.324.348 1.714.266 1.79-.581.535-.412 1.192.366 1.363.868.19 1.975-.101 2.628-.705 1.137-1.05.6-2.699.342-4.024-.429-2.221.091-4.709.021-6.973zm7.937.643c-.069-1.888-.725-3.666-.734-5.573-.01-2.188.172-4.358-.146-6.535-.101-.688-3.849.095-3.717.996.293 2.002.187 4.014.151 6.029-.035 1.941.444 3.699.694 5.603.254 1.95-.081 3.945.141 5.897.103.913.712 2.603.084 3.398-.398.505 1.394.322 1.474.31.729-.136 1.702-.372 2.186-.987.62-.784.186-2.3.051-3.185-.302-1.955-.11-3.983-.184-5.953zm15.497-3.153c-1.957-2.641-5.589-.739-8.125-1.46-1.308-.372-1.323-2.155-1.319-3.224.003-1.353-.108-2.592-.26-3.935-.112-.998-.022-2.013.708-2.755.135-.137.815-.318.768-.322a7.685 7.685 0 0 1 1.013-.088c1.469-.063 4.376.22 3.814 2.356-.253.958 3.413.409 3.68-.604 1.15-4.364-6.914-3.526-9.192-2.921-2.098.557-4.412 1.751-4.531 4.174-.059 1.156.257 2.258.309 3.404.057 1.319-.188 2.635.273 3.907 1.027 2.831 5.238 1.495 7.38 1.656 3.65.271 2.561 5.19 2.608 7.48.025 1.224 1.121 3.255.2 4.278-.565.627-1.881.664-2.649.729-.772.064-2.089.296-2.604-.438-.942-1.345.087-3.605-.114-5.146-.115-.879-3.859-.091-3.717.995.325 2.492-1.328 5.83 2.279 6.258 2.318.275 4.926-.152 7.118-.881 1.135-.376 2.188-.894 3.077-1.701.982-.892.659-2.228.396-3.365-.641-2.769.695-5.956-1.112-8.397zm16.441-.178c-.114-3.584-.653-7.129-.669-10.719-.007-1.871-3.762-1.239-3.754.325.014 3.424.472 6.801.646 10.215l.012.209c-1.85-.017-3.699.169-5.553.233.191-4.396-.58-8.756-.411-13.149.021-.553-3.677-.085-3.718.995-.162 4.248.558 8.461.43 12.709-.061 2.026-.232 4.046-.247 6.074-.007 1.039.164 2.074.312 3.098.138.947.458 2.212.172 3.149-.224.731 3.379.275 3.666-.659.516-1.687-.211-3.834-.383-5.541-.167-1.636-.039-3.319.078-4.98 1.925-.123 3.852-.281 5.77-.011.084 1.308.186 2.613.305 3.924.101 1.099.171 2.194.187 3.298.016.966.135 2.367-.21 3.282-.733 1.953 2.99 1.792 3.533.347.667-1.775.477-3.984.363-5.85-.144-2.32-.454-4.627-.529-6.949zm16.069 4.246c-.892-2.617-2.252-4.913-3.431-7.399.95-1.85 1.915-3.7 2.782-5.588.788-1.715 1.373-3.624 2.922-4.833.545-.424.522-.85-.243-.902-.83-.058-1.958.182-2.629.704-1.408 1.099-2.301 2.433-3.035 4.05a156.23 156.23 0 0 1-2.765 5.765c-.069.14-.141.28-.213.421-.465.3-.744.723-.606 1.201-.75 1.484-1.518 2.959-2.371 4.375-.283-5.25-.905-10.496-1.093-15.752-.041-1.205-3.768-.455-3.715.996.23 6.517 1.155 13.021 1.221 19.536l-.047.048c-.285.293-.179.469.051.571a57.736 57.736 0 0 1-.199 4.985c-.448.709.439 1.081 1.029 1.081h.092c.701 0 2.49-.331 2.579-1.294.182-1.992.237-3.981.221-5.971 1.508-1.627 2.741-3.444 3.849-5.348.72 1.405 1.405 2.821 1.887 4.35.816 2.602 2.182 4.991 2.971 7.604.518 1.713 4.229.701 3.717-.996-.792-2.611-2.093-5.024-2.974-7.604zm22.304-4.398c-.199-.791-1.302-.807-2.156-.731-.012-.318-.02-.637-.033-.956-.12-2.525-.158-5.104-.371-7.622-.198-2.331-1.505-3.167-3.77-3.08-2.293.087-4.962.5-7.101 1.332-2.475.962-3.852 2.784-4.326 5.391-.522 2.86.227 5.901.354 8.775.146 3.324.062 6.655.059 9.98 0 .545 3.717.03 3.717-.996.004-2.633.041-5.268 0-7.9a50.827 50.827 0 0 0-.097-2.318c1.3-.563 3.499.011 4.792.133 1.052.1 2.059-.155 3.079-.275.02 2.193.101 4.4.191 6.591.047 1.122.453 3.351-.335 4.279-.414.491 1.405.326 1.475.314.753-.139 1.671-.381 2.186-.988.901-1.062.433-3.597.381-4.863-.074-1.814-.097-3.63-.135-5.443 1.095-.145 2.294-.816 2.09-1.623zm-13.872-.143c-.099-1.183-.207-2.364-.288-3.552-.15-2.212.111-5.298 2.172-6.642.553-.36 1.59-.298 2.235-.416.922-.166 1.856-.369 2.685.181 1.148.762.865 3.47.863 4.62-.002 1.904.198 3.797.295 5.698-.524.052-1.056.084-1.597.073-2.169-.053-4.311-.394-6.365.038zM49.915 25.373a2.99 2.99 0 0 0 1.401-.497l.244-.206c.493-.318.92-.785.69-1.291-.479-1.049-.403-2.117-.395-3.241.006-.908-.914-1.182-1.689-1.114-.686.061-2.058.551-2.063 1.443-.007.942-.068 1.913.104 2.84-.046.106-.071.226-.099.336-.053.201.015.399.135.56l.002.127.014.318c.07.221.205.388.407.503.367.222.832.263 1.249.222z" fill="#FFF"/></svg>