<svg xmlns="http://www.w3.org/2000/svg" width="86" height="35" viewBox="33 20 86 35"><path d="M36.638 46.517c-.014-3.472-.262-6.938-.356-10.409-.008-.34-.015-.681-.02-1.021l.146.364c.54 1.352 1.103 2.663 1.839 3.92.731 1.244 1.099 2.58 1.521 3.939-.159.182-.256.39-.196.596-.033.15.059.245.212.306.537.46 1.55.231 2.113-.008a5.42 5.42 0 0 0 .696-.355c.29-.181.744-.572.613-.977l-.072-.235c.396-1.068.598-2.179.813-3.308.23-1.206.659-2.345 1.092-3.485.043.521.088 1.044.129 1.56.174 2.147.028 4.27.008 6.422a9.896 9.896 0 0 0 .184 2.075c.059.287.31 1.521.235 1.58-.516.476-.366 1.061.326 1.211.771.169 1.753-.088 2.333-.625 1.009-.934.531-2.396.304-3.572-.385-1.973.077-4.181.017-6.189-.069-2.26-.43-4.503-.399-6.769.023-1.831.328-3.714-.303-5.471.039-.2.08-.398.117-.6.163-.879-2.754-.414-3.212.392-.29.235-.438.519-.313.806.031.071.057.146.084.219-.552 2.699-1.321 5.313-2.207 7.93-.339 1.001-.748 1.977-1.095 2.978-.49-.933-.986-1.851-1.384-2.847-1.155-2.891-2.199-5.813-3.61-8.596.16-1.289-2.698-1.153-3.261.02-.682 1.426-.592 2.866-.369 4.393.254 1.721.298 3.411.32 5.147.039 3.347.3 6.689.351 10.04-.298.331-.389.741-.078 1.158.136.182.306.321.482.46.756.632 2.945.113 2.94-1.049zm18.196-18.372c-.089-.613-3.416.084-3.3.885.259 1.776.167 3.561.136 5.352-.031 1.722.394 3.282.615 4.971.226 1.732-.071 3.502.126 5.235.09.812.632 2.312.074 3.018-.354.447 1.237.285 1.31.275.646-.12 1.509-.331 1.938-.875.552-.697.165-2.042.045-2.82-.267-1.734-.097-3.537-.162-5.286-.061-1.676-.644-3.254-.65-4.946-.009-1.953.153-3.877-.132-5.809zm3.124 6.646c.91 2.514 4.648 1.327 6.551 1.471 3.238.239 2.272 4.607 2.313 6.641.022 1.085.995 2.889.179 3.798-.502.556-1.669.589-2.352.646-.687.057-1.854.261-2.312-.39-.836-1.194.077-3.2-.102-4.568-.103-.78-3.424-.08-3.299.884.29 2.211-1.179 5.175 2.022 5.556 2.059.244 4.372-.136 6.317-.783 1.008-.334 1.943-.792 2.731-1.509.872-.794.585-1.979.352-2.987-.569-2.458.616-5.289-.987-7.454-1.738-2.345-4.962-.657-7.212-1.297-1.161-.33-1.175-1.911-1.17-2.86.002-1.202-.098-2.302-.231-3.491-.1-.887-.021-1.787.628-2.447.119-.121.723-.283.681-.28.299-.051.572-.062.9-.076 1.304-.056 3.885.195 3.386 2.092-.226.851 3.028.363 3.266-.53 1.021-3.874-6.138-3.131-8.159-2.593-1.863.494-3.916 1.555-4.023 3.704-.052 1.027.229 2.006.274 3.022.053 1.154-.165 2.322.247 3.451zm14.455 1.87c-.053 1.799-.208 3.593-.22 5.393-.006.921.146 1.842.278 2.75.122.841.407 1.964.152 2.796-.198.646 3 .242 3.254-.587.458-1.497-.188-3.402-.341-4.918-.147-1.451-.032-2.945.072-4.42 1.708-.11 3.418-.249 5.119-.011.076 1.163.164 2.321.272 3.48.088.976.151 1.948.164 2.929.015.855.12 2.099-.185 2.913-.651 1.731 2.655 1.59 3.136.3.592-1.577.423-3.537.323-5.194-.13-2.059-.404-4.106-.47-6.166-.102-3.183-.58-6.329-.594-9.51-.007-1.661-3.338-1.099-3.331.288.012 3.04.417 6.037.571 9.068.005.061.008.121.01.18-1.64-.016-3.281.149-4.929.207.171-3.902-.515-7.771-.364-11.672.02-.492-3.264-.077-3.3.883-.143 3.781.496 7.521.383 11.291zm14.08 5.371c-.254.259-.159.414.045.506a50.736 50.736 0 0 1-.178 4.424c-.396.63.39.96.912.96h.082c.622 0 2.209-.293 2.289-1.148.162-1.769.211-3.535.196-5.299 1.337-1.446 2.434-3.057 3.416-4.748.64 1.248 1.247 2.505 1.676 3.861.725 2.31 1.938 4.431 2.637 6.75.459 1.521 3.754.621 3.298-.885-.701-2.319-1.856-4.462-2.638-6.75-.791-2.322-1.998-4.361-3.046-6.568.845-1.641 1.699-3.283 2.47-4.96.698-1.524 1.219-3.216 2.594-4.289.483-.376.464-.755-.216-.801-.737-.054-1.738.159-2.334.625-1.25.974-2.042 2.158-2.694 3.595a136.28 136.28 0 0 1-2.455 5.117l-.188.373c-.412.264-.66.642-.539 1.064-.666 1.316-1.347 2.627-2.104 3.885-.252-4.661-.803-9.317-.969-13.983-.036-1.068-3.345-.403-3.297.886.204 5.785 1.024 11.557 1.083 17.34l-.04.045zm31.534-6.232c-.177-.701-1.155-.716-1.914-.648-.01-.281-.017-.566-.029-.849-.106-2.241-.139-4.53-.329-6.765-.176-2.069-1.335-2.812-3.346-2.734-2.035.077-4.404.443-6.302 1.183-2.197.853-3.421 2.471-3.841 4.784-.464 2.539.201 5.238.313 7.789.13 2.951.056 5.909.054 8.859 0 .484 3.297.027 3.297-.884.004-2.338.037-4.676 0-7.014a45.318 45.318 0 0 0-.085-2.057c1.155-.499 3.106.01 4.255.118.933.089 1.826-.138 2.732-.244.017 1.946.09 3.905.17 5.851.042.997.402 2.975-.297 3.799-.368.436 1.249.288 1.31.28.668-.124 1.482-.338 1.939-.87.8-.942.384-3.192.338-4.316-.065-1.611-.086-3.223-.121-4.834.973-.137 2.037-.733 1.856-1.448zm-6.662-.162c-1.928-.046-3.828-.349-5.651.036-.086-1.051-.183-2.098-.255-3.154-.134-1.962.099-4.702 1.928-5.896.492-.318 1.413-.264 1.984-.368.819-.147 1.647-.328 2.384.16 1.018.676.769 3.08.766 4.101-.002 1.69.177 3.37.262 5.059-.466.046-.939.072-1.418.062zM51.159 24.322a.578.578 0 0 0 .119.497l.002.114.013.282a.766.766 0 0 0 .362.446c.325.196.737.232 1.108.196a2.676 2.676 0 0 0 1.245-.439l.216-.183c.438-.282.818-.697.612-1.146-.424-.932-.358-1.88-.35-2.87.005-.808-.812-1.051-1.501-.989-.608.054-1.827.489-1.831 1.279-.007.836-.062 1.698.092 2.522-.04.088-.064.194-.087.291zm61.577 29.183c-1.558-.585-3.283-.615-4.851-.787-1.603-.17-3.245-.41-4.884-.562-1.637.053-3.31.027-4.972.129l-4.88.268c-6.487.289-12.999.253-19.517.107-6.517-.123-13.045-.477-19.63-.453-3.288.008-6.565.099-9.862.25-1.632.283-3.239.501-4.904.913-1.615.399-3.145.907-4.794 1.048 1.623.362 3.341.292 4.962.297 1.579.01 3.243.143 4.872.231 3.229-.172 6.487-.246 9.733-.25 6.487-.024 13.015.329 19.565.451 6.548.146 13.114.186 19.683-.11l4.907-.269c1.603-.071 3.198-.127 4.829-.067 1.628-.148 3.253-.33 4.918-.532 1.664-.238 3.22-.627 4.854-.509l.074.006.006-.055c.021-.178-.04-.323-.04-.479-.033.119-.038.256-.069.373z"/></svg>